<svg width="24" height="24" viewBox="0 0 24 24" fill="none" xmlns="http://www.w3.org/2000/svg">
<path d="M20 2.00134H10C8.897 2.00134 8 2.89834 8 4.00134V8.00134H4C2.897 8.00134 2 8.89834 2 10.0013V20.0013C2 21.1043 2.897 22.0013 4 22.0013H14C15.103 22.0013 16 21.1043 16 20.0013V16.0013H20C21.103 16.0013 22 15.1043 22 14.0013V4.00134C22 2.89834 21.103 2.00134 20 2.00134ZM4 20.0013V10.0013H14L14.002 20.0013H4ZM20 14.0013H16V10.0013C16 8.89834 15.103 8.00134 14 8.00134H10V4.00134H20V14.0013Z" fill="black"/>
</svg>
