<svg width="24" height="24" viewBox="0 0 24 24" fill="none" xmlns="http://www.w3.org/2000/svg">
<path d="M20.8823 3.12139C20.5268 2.76587 20.1048 2.48385 19.6403 2.29144C19.1759 2.09903 18.678 2 18.1753 2C17.6726 2 17.1747 2.09903 16.7103 2.29144C16.2458 2.48385 15.8238 2.76587 15.4683 3.12139L14.3683 4.22339C14.3132 4.2673 14.2629 4.31691 14.2183 4.37139L3.2983 15.2934C3.15868 15.4327 3.06335 15.6101 3.0243 15.8034L2.0163 20.8034C1.98342 20.965 1.991 21.1322 2.03839 21.2902C2.08578 21.4481 2.1715 21.5919 2.28791 21.7087C2.40432 21.8255 2.54781 21.9117 2.7056 21.9596C2.8634 22.0076 3.03059 22.0157 3.1923 21.9834L8.2003 20.9834C8.3936 20.9443 8.57104 20.849 8.7103 20.7094L20.8823 8.53739C21.2378 8.18192 21.5198 7.7599 21.7122 7.29543C21.9047 6.83096 22.0037 6.33314 22.0037 5.83039C22.0037 5.32764 21.9047 4.82982 21.7122 4.36535C21.5198 3.90088 21.2378 3.47886 20.8823 3.12339M15.0003 6.42139L17.5863 9.00739L7.5103 19.0814L4.2743 19.7294L4.9243 16.4974L15.0003 6.42139ZM19.0003 7.59339L16.4143 5.00539L16.8823 4.53739C17.0512 4.36427 17.2528 4.2264 17.4754 4.13176C17.698 4.03712 17.9372 3.9876 18.1791 3.98608C18.421 3.98455 18.6607 4.03104 18.8845 4.12285C19.1083 4.21466 19.3116 4.34998 19.4827 4.52095C19.6538 4.69192 19.7893 4.89515 19.8813 5.11885C19.9733 5.34256 20.02 5.5823 20.0186 5.82418C20.0173 6.06606 19.9679 6.30527 19.8735 6.52794C19.779 6.75062 19.6413 6.95233 19.4683 7.12139L19.0003 7.59339Z" fill="black"/>
</svg>
