<svg width="24" height="24" viewBox="0 0 24 24" fill="none" xmlns="http://www.w3.org/2000/svg">
<path d="M5 16.875V11.875C5 11.5917 5.096 11.3543 5.288 11.163C5.48 10.9717 5.71734 10.8757 6 10.875C6.28267 10.8743 6.52034 10.9703 6.713 11.163C6.90567 11.3557 7.00134 11.593 7 11.875V16.875C7 17.1583 6.904 17.396 6.712 17.588C6.52 17.78 6.28267 17.8757 6 17.875C5.71734 17.8743 5.48 17.7783 5.288 17.587C5.096 17.3957 5 17.1583 5 16.875ZM11 16.875V11.875C11 11.5917 11.096 11.3543 11.288 11.163C11.48 10.9717 11.7173 10.8757 12 10.875C12.2827 10.8743 12.5203 10.9703 12.713 11.163C12.9057 11.3557 13.0013 11.593 13 11.875V16.875C13 17.1583 12.904 17.396 12.712 17.588C12.52 17.78 12.2827 17.8757 12 17.875C11.7173 17.8743 11.48 17.7783 11.288 17.587C11.096 17.3957 11 17.1583 11 16.875ZM3 21.875C2.71667 21.875 2.47934 21.779 2.288 21.587C2.09667 21.395 2.00067 21.1577 2 20.875C1.99934 20.5923 2.09534 20.355 2.288 20.163C2.48067 19.971 2.718 19.875 3 19.875H21C21.2833 19.875 21.521 19.971 21.713 20.163C21.905 20.355 22.0007 20.5923 22 20.875C21.9993 21.1577 21.9033 21.3953 21.712 21.588C21.5207 21.7807 21.2833 21.8763 21 21.875H3ZM17 16.875V11.875C17 11.5917 17.096 11.3543 17.288 11.163C17.48 10.9717 17.7173 10.8757 18 10.875C18.2827 10.8743 18.5203 10.9703 18.713 11.163C18.9057 11.3557 19.0013 11.593 19 11.875V16.875C19 17.1583 18.904 17.396 18.712 17.588C18.52 17.78 18.2827 17.8757 18 17.875C17.7173 17.8743 17.48 17.7783 17.288 17.587C17.096 17.3957 17 17.1583 17 16.875ZM21 8.875H2.9C2.65 8.875 2.43734 8.78767 2.262 8.613C2.08667 8.43833 1.99934 8.22567 2 7.975V7.425C2 7.24167 2.046 7.08333 2.138 6.95C2.23 6.81667 2.35067 6.70833 2.5 6.625L11.1 2.325C11.3833 2.19167 11.6833 2.125 12 2.125C12.3167 2.125 12.6167 2.19167 12.9 2.325L21.45 6.6C21.6333 6.68333 21.771 6.80833 21.863 6.975C21.955 7.14167 22.0007 7.31667 22 7.5V7.875C22 8.15833 21.9043 8.396 21.713 8.588C21.5217 8.78 21.284 8.87567 21 8.875ZM6.45 6.875H17.55L12 4.125L6.45 6.875Z" fill="black"/>
</svg>
