<svg width="24" height="24" viewBox="0 0 24 24" fill="none" xmlns="http://www.w3.org/2000/svg">
<path d="M11.8221 15.463L11.8116 15.4583L11.8008 15.4541C11.7408 15.4309 11.6859 15.3963 11.6391 15.3522L7.64357 11.3563C7.59676 11.3094 7.55963 11.2539 7.53429 11.1927C7.50895 11.1315 7.49591 11.0659 7.49591 10.9997C7.49591 10.9335 7.50895 10.8679 7.53429 10.8067C7.55963 10.7456 7.59676 10.69 7.64357 10.6432C7.69039 10.5963 7.74596 10.5592 7.80711 10.5339C7.86827 10.5085 7.93381 10.4955 8 10.4955C8.06619 10.4955 8.13174 10.5085 8.19289 10.5339C8.25388 10.5591 8.30932 10.5961 8.35605 10.6428C8.35618 10.6429 8.3563 10.643 8.35643 10.6432L10.6457 12.9427L11.5 13.8008V12.5899V2.99877C11.5 2.86612 11.5527 2.7389 11.6465 2.64512C11.7402 2.55133 11.8674 2.49866 12 2.49866C12.1326 2.49866 12.2598 2.55133 12.3535 2.64512C12.4473 2.7389 12.5 2.86612 12.5 2.99877V12.5899V13.8008L13.3543 12.9427L15.6436 10.6432C15.6437 10.643 15.6439 10.6429 15.644 10.6427C15.7385 10.5484 15.8665 10.4955 16 10.4955C16.1337 10.4955 16.2619 10.5486 16.3564 10.6432C16.451 10.7377 16.5041 10.866 16.5041 10.9997C16.5041 11.1335 16.451 11.2617 16.3564 11.3563L12.3609 15.3522C12.3141 15.3963 12.2592 15.4309 12.1992 15.4541L12.1884 15.4583L12.1779 15.463C12.1218 15.4877 12.0612 15.5005 12 15.5005C11.9388 15.5005 11.8782 15.4877 11.8221 15.463ZM20.6465 14.6465C20.7402 14.5527 20.8674 14.5001 21 14.5001C21.1326 14.5001 21.2598 14.5527 21.3535 14.6465C21.4473 14.7403 21.5 14.8675 21.5 15.0002V19.0006C21.5 19.6638 21.2366 20.2998 20.7677 20.7687C20.2989 21.2376 19.663 21.501 19 21.501H5C4.33698 21.501 3.7011 21.2376 3.23225 20.7687C2.76341 20.2998 2.5 19.6638 2.5 19.0006V15.0002C2.5 14.8675 2.55269 14.7403 2.64647 14.6465C2.74024 14.5527 2.86741 14.5001 3 14.5001C3.13259 14.5001 3.25976 14.5527 3.35353 14.6465C3.44731 14.7403 3.5 14.8675 3.5 15.0002V19.0006C3.5 19.3985 3.65802 19.78 3.93932 20.0614C4.22062 20.3427 4.60216 20.5008 5 20.5008H19C19.3978 20.5008 19.7794 20.3427 20.0607 20.0614C20.342 19.78 20.5 19.3985 20.5 19.0006V15.0002C20.5 14.8675 20.5527 14.7403 20.6465 14.6465Z" fill="#1B1A1A" stroke="white"/>
</svg>
