<svg width="24" height="24" viewBox="0 0 24 24" fill="none" xmlns="http://www.w3.org/2000/svg">
<path d="M11.9517 1.50728C12.4773 1.50493 12.9824 1.71147 13.3558 2.08146C13.7292 2.45146 13.9404 2.95461 13.9429 3.48028C15.084 4.01323 16.0584 4.84666 16.7619 5.89124C17.4653 6.93582 17.8712 8.15215 17.936 9.40983L17.9483 12.383C18.0257 12.999 18.2467 13.5882 18.5935 14.1032C18.9403 14.6181 19.4032 15.0445 19.9448 15.3478L4.08703 15.4216C4.62566 15.1132 5.08438 14.6827 5.42627 14.1647C5.76817 13.6467 5.98368 13.0557 6.05547 12.4392L6.04037 9.46463C6.0936 8.2064 6.48826 6.98638 7.18205 5.93537C7.87583 4.88435 8.84258 4.04198 9.97865 3.49855C9.97631 2.97287 10.1828 2.46779 10.5528 2.09437C10.9228 1.72096 11.426 1.50978 11.9517 1.50728Z" stroke="black" stroke-width="2" stroke-linecap="round" stroke-linejoin="round"/>
<path d="M9.04151 15.398L9.04608 16.389C9.04971 17.1778 9.36652 17.9327 9.9268 18.4879C10.4871 19.043 11.245 19.3529 12.0337 19.3492C12.8224 19.3456 13.5774 19.0288 14.1325 18.4685C14.6877 17.9082 14.9975 17.1504 14.9939 16.3616L14.9893 15.3706" stroke="black" stroke-width="2" stroke-linecap="round" stroke-linejoin="round"/>
</svg>
