<svg width="24" height="24" viewBox="0 0 24 24" fill="none" xmlns="http://www.w3.org/2000/svg">
<path d="M11 18.3083C10.9979 18.1893 10.9558 18.0745 10.8805 17.9824C10.8052 17.8902 10.7011 17.8261 10.585 17.8003C9.46681 17.529 8.45035 16.9416 7.65698 16.1083C7.5766 16.021 7.46925 15.9632 7.35212 15.9442C7.235 15.9251 7.11487 15.9459 7.01098 16.0033L5.23798 17.0283C5.17684 17.0621 5.12386 17.1088 5.08279 17.1653C5.04172 17.2218 5.01356 17.2867 5.00031 17.3553C4.98705 17.4238 4.98901 17.4945 5.00606 17.5622C5.02311 17.63 5.05483 17.6931 5.09898 17.7473C6.56268 19.4959 8.63571 20.6236 10.899 20.9023C10.9117 20.9038 10.9246 20.9027 10.9368 20.8989C10.949 20.895 10.9603 20.8887 10.9699 20.8801C10.9794 20.8716 10.9871 20.8612 10.9922 20.8495C10.9974 20.8378 11.0001 20.8251 11 20.8123V18.3083ZM18 11.9683C18 11.3803 17.916 10.8133 17.758 10.2763C17.7226 10.1629 17.7264 10.041 17.7687 9.92999C17.8109 9.81901 17.8892 9.72544 17.991 9.66428L19.761 8.64128C20.021 8.49228 20.351 8.60128 20.454 8.88128C21.2314 11.009 21.1774 13.3516 20.303 15.4413C20.2958 15.4579 20.2852 15.4728 20.2719 15.4851C20.2585 15.4973 20.2427 15.5066 20.2255 15.5122C20.2083 15.5179 20.1901 15.5199 20.1721 15.518C20.154 15.5161 20.1366 15.5104 20.121 15.5013L17.991 14.2723C17.8892 14.2111 17.8109 14.1175 17.7687 14.0066C17.7264 13.8956 17.7226 13.7736 17.758 13.6603C17.919 13.1107 18.0004 12.5409 18 11.9683ZM6.00998 9.66428C6.11158 9.72559 6.18967 9.81922 6.23173 9.93019C6.2738 10.0411 6.27741 10.163 6.24198 10.2763C6.081 10.8258 5.9995 11.3956 5.99998 11.9683C5.99998 12.5563 6.08398 13.1233 6.24198 13.6603C6.27714 13.7737 6.27329 13.8955 6.23105 14.0065C6.18882 14.1174 6.11063 14.211 6.00898 14.2723L4.23898 15.2953C4.17907 15.3315 4.11194 15.354 4.04233 15.3614C3.97272 15.3687 3.90235 15.3606 3.83622 15.3377C3.77008 15.3148 3.70979 15.2777 3.65963 15.2288C3.60947 15.18 3.57067 15.1208 3.54598 15.0553C2.81801 13.0617 2.81801 10.8749 3.54598 8.88128C3.5707 8.81593 3.60947 8.75681 3.65956 8.70809C3.70964 8.65938 3.76982 8.62227 3.83583 8.59937C3.90184 8.57648 3.97207 8.56836 4.04156 8.57561C4.11106 8.58285 4.17811 8.60527 4.23798 8.64128L6.00998 9.66428ZM16.99 16.0033C16.886 15.9457 16.7656 15.9247 16.6483 15.9438C16.531 15.9628 16.4234 16.0207 16.343 16.1083C15.5496 16.9416 14.5331 17.529 13.415 17.8003C13.2988 17.8261 13.1947 17.8902 13.1194 17.9824C13.0442 18.0745 13.0021 18.1893 13 18.3083V20.3533C13 20.6513 13.26 20.8843 13.553 20.8333C15.6439 20.4672 17.5382 19.3738 18.901 17.7463C18.9453 17.6921 18.9771 17.6288 18.9942 17.5609C19.0112 17.493 19.0132 17.4222 18.9998 17.3534C18.9865 17.2847 18.9581 17.2198 18.9169 17.1632C18.8756 17.1067 18.8224 17.0599 18.761 17.0263L16.99 16.0033ZM16.343 7.82828C16.4234 7.91557 16.5307 7.97336 16.6478 7.9924C16.765 8.01144 16.8851 7.99062 16.989 7.93328L18.762 6.90928C18.8231 6.8755 18.8761 6.82871 18.9172 6.7722C18.9582 6.7157 18.9864 6.65087 18.9997 6.58229C19.0129 6.51371 19.0109 6.44305 18.9939 6.37531C18.9768 6.30757 18.9451 6.24441 18.901 6.19028C17.538 4.56299 15.6438 3.46963 13.553 3.10328C13.484 3.09213 13.4135 3.09627 13.3463 3.11539C13.2791 3.13452 13.217 3.16816 13.1642 3.21394C13.1115 3.25972 13.0694 3.31653 13.041 3.38035C13.0127 3.44417 12.9986 3.51344 13 3.58328V5.62828C13 5.87228 13.177 6.07828 13.415 6.13628C14.5331 6.40756 15.5496 6.99494 16.343 7.82828Z" fill="black"/>
<path fill-rule="evenodd" clip-rule="evenodd" d="M10.982 4.80528C11.0096 4.93498 10.9845 5.07032 10.9123 5.18154C10.8401 5.29276 10.7267 5.37074 10.597 5.39834C9.20265 5.69475 7.93789 6.42506 6.98404 7.48459C6.94005 7.53338 6.88688 7.57303 6.82756 7.60127C6.76825 7.62951 6.70396 7.64579 6.63835 7.64918C6.57275 7.65257 6.50712 7.643 6.44521 7.62102C6.3833 7.59905 6.32633 7.56509 6.27754 7.52109C6.22876 7.47709 6.18911 7.42392 6.16088 7.3646C6.13264 7.30528 6.11636 7.24097 6.11297 7.17536C6.10958 7.10975 6.11915 7.04411 6.14112 6.9822C6.1631 6.92028 6.19705 6.8633 6.24104 6.81451C7.33628 5.59844 8.7883 4.76032 10.389 4.42023C10.5187 4.39266 10.6541 4.41774 10.7653 4.48995C10.8765 4.56215 10.9544 4.67558 10.982 4.80528Z" fill="black"/>
</svg>
