<svg width="24" height="24" viewBox="0 0 24 24" fill="none" xmlns="http://www.w3.org/2000/svg">
<path d="M15.9932 7.00002C16.2382 7.00005 16.4746 7.08998 16.6576 7.25274C16.8406 7.41549 16.9576 7.63977 16.9862 7.88302L16.9932 8.00002V17.621L18.8212 15.793C19.0008 15.6118 19.2428 15.506 19.4978 15.4973C19.7527 15.4887 20.0014 15.5778 20.1928 15.7465C20.3842 15.9152 20.5039 16.1506 20.5274 16.4046C20.5509 16.6587 20.4764 16.9121 20.3192 17.113L20.2352 17.207L16.7002 20.743C16.528 20.9152 16.2989 21.0186 16.0559 21.0339C15.8129 21.0492 15.5726 20.9753 15.3802 20.826L15.2862 20.743L11.7502 17.207C11.5709 17.0271 11.4667 16.7856 11.459 16.5316C11.4512 16.2777 11.5404 16.0303 11.7085 15.8397C11.8765 15.6492 12.1108 15.5297 12.3637 15.5056C12.6166 15.4815 12.8692 15.5546 13.0702 15.71L13.1652 15.793L14.9932 17.62V8.00002C14.9932 7.7348 15.0986 7.48045 15.2861 7.29291C15.4736 7.10538 15.728 7.00002 15.9932 7.00002ZM8.70022 3.25702L12.2352 6.79302C12.3307 6.88527 12.4069 6.99561 12.4593 7.11762C12.5117 7.23962 12.5393 7.37084 12.5405 7.50362C12.5416 7.6364 12.5163 7.76808 12.466 7.89097C12.4158 8.01387 12.3415 8.12552 12.2476 8.21941C12.1537 8.31331 12.0421 8.38756 11.9192 8.43784C11.7963 8.48812 11.6646 8.51342 11.5318 8.51227C11.399 8.51112 11.2678 8.48353 11.1458 8.43112C11.0238 8.37871 10.9135 8.30253 10.8212 8.20702L8.99322 6.37902V15.999C8.99322 16.2642 8.88786 16.5186 8.70032 16.7061C8.51279 16.8937 8.25843 16.999 7.99322 16.999C7.728 16.999 7.47365 16.8937 7.28611 16.7061C7.09857 16.5186 6.99322 16.2642 6.99322 15.999V6.38002L5.16322 8.20702C4.97462 8.38918 4.72201 8.48997 4.45982 8.48769C4.19762 8.48542 3.94681 8.38025 3.7614 8.19484C3.57599 8.00943 3.47082 7.75862 3.46854 7.49642C3.46627 7.23422 3.56706 6.98162 3.74922 6.79302L7.28522 3.25702C7.47275 3.06955 7.72705 2.96423 7.99222 2.96423C8.25738 2.96423 8.51269 3.06955 8.70022 3.25702Z" fill="black"/>
</svg>
