<svg width="24" height="24" viewBox="0 0 24 24" fill="none" xmlns="http://www.w3.org/2000/svg">
<path d="M9.94345 20.5412L10.9128 20.3862L9.94345 20.54V20.5412ZM14.0565 20.5412L13.0872 20.3862L14.0565 20.54V20.5412ZM10.5905 3.875H13.4095V2H10.5905V3.875ZM10.9128 3.61375C10.9001 3.68661 10.8608 3.75283 10.8018 3.80066C10.7428 3.84848 10.6679 3.87482 10.5905 3.875V2C10.2028 1.99968 9.82755 2.13066 9.53155 2.36964C9.23555 2.60861 9.03802 2.94132 8.97412 3.30625L10.9128 3.61375ZM10.7084 4.7875L10.9128 3.61375L8.97412 3.30625L8.76978 4.48L10.7084 4.7875ZM9.82294 5.7725C10.2722 5.63 10.6259 5.26 10.7084 4.7875L8.76978 4.48C8.78946 4.36939 8.83998 4.26587 8.91604 4.18031C8.9921 4.09476 9.09089 4.03031 9.20205 3.99375L9.82294 5.7725ZM7.43892 7.0875C8.13149 6.49886 8.94274 6.05138 9.82294 5.7725L9.20205 3.99375C8.07053 4.35293 7.02758 4.92839 6.13687 5.685L7.43892 7.0875ZM6.10281 7.3275C6.57438 7.495 7.08524 7.3875 7.43892 7.0875L6.13687 5.685C6.22555 5.61168 6.33194 5.56244 6.44738 5.54243C6.56283 5.52242 6.68179 5.53238 6.79182 5.57125L6.10281 7.3275ZM4.93307 6.90875L6.10281 7.3275L6.79182 5.57125L5.62077 5.1525L4.93307 6.90875ZM5.33128 6.77125C5.29271 6.83545 5.23152 6.88451 5.1586 6.90969C5.08568 6.93487 5.00576 6.93454 4.93307 6.90875L5.62077 5.1525C5.25776 5.02281 4.85961 5.02022 4.49478 5.1452C4.12995 5.27017 3.82342 5.5146 3.62972 5.835L5.33259 6.7725L5.33128 6.77125ZM3.92182 9.10375L5.33128 6.77375L3.62972 5.835L2.21895 8.165L3.92182 9.10375ZM3.84585 8.705C3.90578 8.75195 3.9463 8.81892 3.96022 8.89171C3.97413 8.9645 3.96052 9.03964 3.92182 9.10375L2.21895 8.165C2.02531 8.48544 1.95708 8.86229 2.0264 9.22623C2.09572 9.59017 2.29809 9.91883 2.59751 10.1537L3.84585 8.705ZM4.80863 9.46375L3.84585 8.705L2.59751 10.1537L3.56029 10.9113L4.80863 9.46375ZM5.26055 10.685C5.30807 10.4613 5.29115 10.2307 5.21157 10.0154C5.13199 9.80015 4.99274 9.6095 4.80863 9.46375L3.56029 10.9113C3.46978 10.8397 3.40111 10.7463 3.36147 10.6407C3.32183 10.5351 3.31268 10.4214 3.33499 10.3113L5.26055 10.685ZM5.12301 12C5.12301 11.5483 5.16885 11.11 5.26055 10.685L3.33499 10.31C3.21884 10.8583 3.1599 11.4217 3.15815 12H5.12301ZM5.26055 13.315C5.16889 12.8821 5.12281 12.4416 5.12301 12H3.15815C3.1599 12.5783 3.21884 13.1412 3.33499 13.6888L5.26055 13.315ZM4.80863 14.5375C5.19636 14.2337 5.35486 13.7575 5.26055 13.315L3.33499 13.69C3.31268 13.5799 3.32183 13.4661 3.36147 13.3605C3.40111 13.255 3.46978 13.1615 3.56029 13.09L4.80863 14.5375ZM3.84585 15.295L4.80863 14.5375L3.56029 13.09L2.59751 13.8463L3.84585 15.295ZM3.92182 14.8975C3.96052 14.9616 3.97413 15.0368 3.96022 15.1095C3.9463 15.1823 3.90578 15.248 3.84585 15.295L2.59751 13.8463C2.29831 14.0813 2.09619 14.4113 2.02711 14.7753C1.95803 15.1392 2.02516 15.5147 2.21895 15.835L3.92182 14.8975ZM5.33128 17.2275L3.92182 14.8975L2.21895 15.835L3.62972 18.165L5.33128 17.2275ZM4.93307 17.0912C5.00576 17.0655 5.08568 17.0651 5.1586 17.0903C5.23152 17.1155 5.29271 17.1633 5.33128 17.2275L3.62972 18.165C4.03055 18.825 4.87281 19.1162 5.62208 18.8475L4.93307 17.0912ZM6.10281 16.6725L4.93307 17.0912L5.62208 18.8475L6.79182 18.4287L6.10281 16.6725ZM7.43892 16.9125C7.25968 16.7611 7.04075 16.6589 6.80545 16.6169C6.57016 16.5748 6.32732 16.5945 6.10281 16.6737L6.79182 18.4287C6.68197 18.4674 6.56326 18.4772 6.44807 18.4572C6.33288 18.4372 6.22542 18.3881 6.13687 18.315L7.43892 16.9125ZM9.82294 18.2275C8.94274 17.9486 8.13149 17.5011 7.43892 16.9125L6.13687 18.315C7.02865 19.0702 8.06997 19.6455 9.20074 20.0062L9.82294 18.2275ZM10.7084 19.2125C10.6681 18.9872 10.5644 18.7766 10.4085 18.6031C10.2525 18.4296 10.0501 18.2998 9.82294 18.2275L9.20074 20.0062C9.08975 19.9698 8.99239 19.9055 8.91634 19.8202C8.8403 19.7349 8.78968 19.6316 8.76978 19.5212L10.7084 19.2125ZM10.9128 20.3862L10.7084 19.2112L8.76978 19.5212L8.97543 20.695L10.9128 20.3862ZM10.5905 20.125C10.6679 20.1252 10.7428 20.1515 10.8018 20.1993C10.8608 20.2472 10.9001 20.3134 10.9128 20.3862L8.97543 20.695C9.03937 21.0601 9.23578 21.3918 9.53205 21.6308C9.82833 21.8698 10.2039 22.0006 10.5919 22L10.5905 20.125ZM13.4095 20.125H10.5905V22H13.4095V20.125ZM13.0872 20.3862C13.0999 20.3134 13.1392 20.2472 13.1982 20.1993C13.2572 20.1515 13.3321 20.1252 13.4095 20.125V22C13.797 22 14.1719 21.8689 14.4676 21.63C14.7634 21.391 14.9607 21.0597 15.0246 20.695L13.0872 20.3862ZM13.2916 19.2112L13.0872 20.3862L15.0259 20.695L15.2302 19.52L13.2916 19.2112ZM14.1771 18.2275C13.7278 18.37 13.3741 18.74 13.2916 19.2125L15.2302 19.52C15.2105 19.6306 15.16 19.7341 15.084 19.8197C15.0079 19.9052 14.9091 19.9697 14.798 20.0062L14.1771 18.2275ZM16.5611 16.9125C15.8685 17.5011 15.0573 17.9486 14.1771 18.2275L14.798 20.0062C15.9287 19.6455 16.9713 19.0702 17.8631 18.315L16.5611 16.9125ZM17.8972 16.6737C17.6728 16.5943 17.43 16.5744 17.1947 16.6163C16.9594 16.6581 16.7405 16.76 16.5611 16.9112L17.8644 18.315C17.7758 18.3883 17.6681 18.4376 17.5526 18.4576C17.4372 18.4776 17.3182 18.4676 17.2082 18.4287L17.8972 16.6725V16.6737ZM19.0669 17.0912L17.8972 16.6725L17.2082 18.4287L18.3779 18.8475L19.0669 17.0912ZM18.6687 17.2275C18.7073 17.1633 18.7685 17.1155 18.8414 17.0903C18.9143 17.0651 18.9942 17.0655 19.0669 17.0912L18.3779 18.8475C18.7409 18.9772 19.1404 18.9798 19.5052 18.8548C19.87 18.7298 20.1766 18.4854 20.3703 18.165L18.6687 17.2275ZM20.0782 14.8975L18.6687 17.2275L20.3703 18.165L21.7797 15.835L20.0782 14.8975ZM20.1542 15.295C20.0942 15.248 20.0537 15.1823 20.0398 15.1095C20.0259 15.0368 20.0395 14.9616 20.0782 14.8975L21.781 15.835C21.9747 15.5146 22.0429 15.139 21.9736 14.775C21.9043 14.4111 21.7019 14.0824 21.4025 13.8475L20.1542 15.295ZM19.1914 14.5375L20.1542 15.295L21.4025 13.8475L20.4397 13.09L19.1914 14.5375ZM18.7395 13.315C18.6451 13.7575 18.8036 14.2337 19.1914 14.5375L20.4397 13.09C20.6362 13.2437 20.7095 13.4788 20.665 13.69L18.7395 13.315ZM18.877 12C18.877 12.4525 18.8311 12.8908 18.7395 13.315L20.665 13.69C20.7812 13.1417 20.8401 12.5783 20.8418 12H18.877ZM18.7395 10.685C18.8303 11.1092 18.8761 11.5475 18.877 12H20.8418C20.8418 11.4217 20.7829 10.8588 20.665 10.3113L18.7395 10.685ZM19.1914 9.4625C19.0073 9.60825 18.868 9.7989 18.7884 10.0142C18.7089 10.2294 18.6919 10.4613 18.7395 10.685L20.665 10.31C20.6873 10.4201 20.6782 10.5339 20.6385 10.6395C20.5989 10.745 20.5302 10.8385 20.4397 10.91L19.1914 9.4625ZM20.1542 8.705L19.1914 9.4625L20.4397 10.91L21.4025 10.1525L20.1542 8.705ZM20.0782 9.1025C20.0395 9.03839 20.0259 8.96325 20.0398 8.89046C20.0537 8.81767 20.0942 8.75195 20.1542 8.705L21.4025 10.1525C21.7017 9.91741 21.9038 9.58867 21.9729 9.22474C22.042 8.86081 21.9735 8.4853 21.7797 8.165L20.0782 9.1025ZM18.6674 6.7725L20.0782 9.1025L21.781 8.165L20.3703 5.835L18.6674 6.7725ZM19.0669 6.90875C18.9942 6.93454 18.9143 6.93487 18.8414 6.90969C18.7685 6.88451 18.7073 6.83545 18.6687 6.77125L20.3703 5.83375C20.1764 5.51358 19.8698 5.26941 19.5049 5.14467C19.1401 5.01993 18.7408 5.0227 18.3779 5.1525L19.0669 6.90875ZM17.8972 7.32625L19.0669 6.90875L18.3779 5.1525L17.2069 5.57125L17.8972 7.32625ZM16.5611 7.08875C16.9148 7.38875 17.4256 7.495 17.8972 7.32625L17.2069 5.57125C17.3167 5.53262 17.4367 5.52279 17.5519 5.5428C17.6671 5.5628 17.7746 5.61191 17.8631 5.685L16.5611 7.08875ZM14.1771 5.7725C15.0573 6.05138 15.8685 6.50011 16.5611 7.08875L17.8644 5.685C16.9737 4.92839 15.9308 4.35293 14.7993 3.99375L14.1771 5.7725ZM13.2916 4.7875C13.3741 5.26125 13.7278 5.63 14.1771 5.7725L14.798 3.99375C14.9091 4.03031 15.0079 4.09476 15.084 4.18031C15.16 4.26587 15.2105 4.36939 15.2302 4.48L13.2916 4.7875ZM13.0872 3.61375L13.2916 4.7875L15.2302 4.48L15.0246 3.305L13.0872 3.61375ZM13.4095 3.875C13.3321 3.87482 13.2572 3.84848 13.1982 3.80066C13.1392 3.75283 13.0999 3.68661 13.0872 3.61375L15.0259 3.30625C14.9622 2.94088 14.7646 2.60896 14.4683 2.36971C14.172 2.13046 13.7963 1.99943 13.4081 2V3.875H13.4095ZM14.9473 12C14.9473 12.7459 14.6368 13.4613 14.084 13.9887C13.5313 14.5162 12.7817 14.8125 12 14.8125V16.6875C13.3028 16.6875 14.5522 16.1936 15.4734 15.3146C16.3946 14.4355 16.9121 13.2432 16.9121 12H14.9473ZM12 9.1875C12.7817 9.1875 13.5313 9.48382 14.084 10.0113C14.6368 10.5387 14.9473 11.2541 14.9473 12H16.9121C16.9121 10.7568 16.3946 9.56451 15.4734 8.68544C14.5522 7.80636 13.3028 7.3125 12 7.3125V9.1875ZM9.05272 12C9.05272 11.2541 9.36323 10.5387 9.91596 10.0113C10.4687 9.48382 11.2183 9.1875 12 9.1875V7.3125C10.6972 7.3125 9.4478 7.80636 8.52659 8.68544C7.60539 9.56451 7.08786 10.7568 7.08786 12H9.05272ZM12 14.8125C11.2183 14.8125 10.4687 14.5162 9.91596 13.9887C9.36323 13.4613 9.05272 12.7459 9.05272 12H7.08786C7.08786 13.2432 7.60539 14.4355 8.52659 15.3146C9.4478 16.1936 10.6972 16.6875 12 16.6875V14.8125Z" fill="black"/>
</svg>
